<?xml version="1.0" standalone="no"?>
<!DOCTYPE svg PUBLIC "-//W3C//DTD SVG 20010904//EN"
 "http://www.w3.org/TR/2001/REC-SVG-20010904/DTD/svg10.dtd">
<svg version="1.0" xmlns="http://www.w3.org/2000/svg"
 width="512.000000pt" height="512.000000pt" viewBox="0 0 512.000000 512.000000"
 preserveAspectRatio="xMidYMid meet">

<g transform="translate(0.000000,512.000000) scale(0.100000,-0.100000)"
fill="#000000" stroke="none">
<path d="M2181 4836 c-7 -8 -9 -38 -5 -87 7 -87 -10 -403 -31 -574 -18 -149
-75 -477 -84 -488 -7 -7 -204 37 -661 146 -200 48 -220 48 -220 -2 0 -77 115
-354 265 -636 46 -87 80 -162 75 -165 -5 -3 -168 -28 -362 -54 -194 -27 -359
-53 -365 -59 -7 -5 -13 -17 -13 -27 0 -24 349 -381 465 -476 52 -42 95 -79 95
-83 -1 -3 -98 -73 -217 -156 -120 -82 -225 -158 -235 -168 -38 -36 -11 -51
234 -132 128 -43 236 -80 240 -84 4 -3 -36 -79 -89 -169 -84 -143 -94 -165
-81 -178 8 -8 94 -30 200 -50 l186 -36 -24 -86 c-42 -150 -46 -171 -40 -188 6
-15 21 -16 144 -11 l137 6 30 -62 c20 -43 55 -88 115 -148 73 -73 100 -92 190
-136 58 -29 159 -68 225 -89 110 -34 130 -37 240 -37 103 0 131 4 200 26 110
36 194 88 291 179 45 43 86 78 91 78 21 0 99 69 118 103 l19 36 81 3 80 3 -3
89 -3 89 111 -7 c113 -7 140 -2 140 29 0 8 -36 60 -79 118 l-80 104 17 46 16
45 176 52 c225 65 244 72 248 92 2 9 -33 64 -77 122 -61 80 -81 114 -81 137 0
19 -20 69 -47 120 -26 48 -45 90 -43 93 3 2 102 55 220 116 285 148 300 157
300 180 0 13 -40 44 -140 107 -78 48 -174 109 -215 136 l-75 47 91 137 c50 75
114 157 142 182 61 56 249 336 245 366 -4 24 -26 24 -212 7 -82 -8 -160 -8
-255 -1 -180 12 -204 17 -196 38 47 123 111 401 126 553 17 173 -8 336 -66
424 -28 43 17 77 -560 -420 -93 -80 -173 -146 -176 -146 -3 0 -42 60 -87 133
-142 233 -312 446 -561 700 -69 70 -133 127 -142 127 -9 0 -22 -6 -28 -14z
m394 -463 c117 -141 238 -313 330 -473 33 -58 67 -106 75 -108 8 -1 107 77
220 174 113 97 267 230 343 295 76 66 143 119 148 119 4 0 16 -26 26 -57 13
-44 17 -91 16 -193 -1 -159 -29 -317 -94 -530 -54 -174 -56 -186 -33 -198 46
-23 367 -44 514 -33 58 5 106 7 108 6 8 -7 -141 -217 -170 -243 -56 -48 -77
-73 -144 -176 -37 -56 -84 -124 -105 -152 -22 -28 -39 -55 -39 -61 0 -18 45
-50 228 -163 100 -63 179 -117 175 -121 -5 -4 -117 -65 -250 -134 -181 -95
-243 -132 -243 -145 0 -10 25 -61 55 -114 30 -52 55 -106 55 -120 0 -40 16
-72 74 -149 30 -39 52 -75 48 -78 -4 -4 -78 -27 -164 -52 l-158 -44 -10 36
c-11 41 -41 86 -82 122 l-28 24 16 108 c14 91 22 117 49 158 72 106 91 254 47
369 -17 45 -21 85 -25 225 -4 138 -9 188 -29 264 l-25 95 24 35 c32 47 38 76
23 112 -19 46 -105 116 -200 162 -47 22 -113 60 -146 84 -80 56 -170 97 -269
124 -109 30 -336 32 -440 5 -189 -50 -362 -170 -490 -340 -65 -88 -151 -275
-176 -384 -15 -68 -56 -363 -74 -537 -26 -255 -19 -231 -78 -258 -71 -33 -108
-66 -142 -129 -72 -129 -12 -301 126 -363 l41 -19 -6 -55 c-19 -199 -19 -203
8 -256 30 -59 25 -65 -56 -65 l-57 0 23 83 c13 45 29 101 36 124 10 33 10 46
1 57 -7 8 -82 27 -184 47 -95 18 -175 35 -179 38 -4 4 33 75 82 159 50 84 90
159 90 166 0 8 -6 18 -12 24 -7 5 -114 42 -237 82 -203 66 -222 74 -205 87 10
8 112 80 227 159 142 100 207 151 207 164 0 11 -33 44 -82 83 -46 36 -126 105
-180 153 -103 96 -293 292 -287 298 2 2 157 25 344 50 187 26 350 51 363 56
33 14 28 40 -28 139 -152 275 -335 681 -305 681 2 0 189 -43 414 -95 225 -52
416 -92 425 -89 19 7 20 8 55 199 50 271 89 642 91 870 l1 50 109 -112 c59
-62 156 -170 215 -240z m349 -872 c97 -26 194 -69 156 -70 -14 0 -52 6 -85 13
-33 8 -63 12 -67 10 -3 -2 -52 -9 -107 -14 -155 -15 -232 -38 -391 -116 -172
-85 -304 -183 -315 -234 -13 -59 34 -120 92 -120 10 0 96 38 191 85 199 97
296 130 428 147 177 23 388 -21 552 -114 72 -41 73 -42 92 -107 32 -101 50
-224 50 -334 l0 -100 -42 42 c-208 206 -573 110 -660 -173 -43 -142 -8 -285
98 -396 134 -140 341 -167 496 -65 21 14 39 25 41 25 5 0 -24 -187 -48 -315
-18 -100 -67 -300 -87 -358 l-13 -37 -38 45 c-45 53 -75 72 -82 53 -3 -8 15
-35 39 -61 68 -70 91 -166 62 -250 -34 -94 -111 -148 -219 -152 -48 -2 -63 -6
-65 -19 -3 -12 5 -16 30 -17 18 -1 36 -1 41 0 45 7 -98 -114 -188 -158 -85
-42 -203 -71 -289 -71 -123 0 -306 54 -471 138 -104 54 -212 154 -258 240
l-29 53 29 -7 c44 -10 48 -10 48 4 0 7 -29 27 -64 45 -87 44 -124 95 -129 181
-2 36 1 81 8 102 18 52 81 118 140 143 55 24 69 38 45 47 -21 8 -70 -12 -127
-54 l-48 -34 0 59 c0 303 95 1151 147 1318 50 159 142 315 246 417 130 127
281 204 452 231 68 11 261 -2 339 -22z m134 -107 c157 -25 375 -132 442 -217
16 -20 20 -35 15 -56 -10 -46 -29 -57 -62 -33 -146 103 -406 173 -588 158
-161 -14 -268 -48 -487 -157 -87 -44 -165 -79 -175 -79 -25 0 -53 30 -53 57 0
43 126 141 280 218 176 87 284 115 488 123 23 1 86 -5 140 -14z m306 -763 c73
-35 141 -104 177 -179 35 -71 39 -206 8 -287 -31 -83 -130 -183 -212 -213
-154 -58 -335 -5 -432 125 -157 212 -45 518 212 583 70 17 175 5 247 -29z
m-1638 -658 c-3 -16 -8 -80 -11 -143 -3 -63 -8 -150 -11 -193 l-6 -77 -39 22
c-77 43 -126 141 -113 225 9 60 55 128 111 163 60 38 76 39 69 3z m1798 -295
c58 -117 8 -252 -103 -274 -17 -4 -31 -3 -31 2 0 5 11 59 24 119 14 61 30 136
36 167 10 52 13 57 30 48 10 -5 30 -33 44 -62z m35 -333 c22 -30 41 -57 41
-60 0 -3 -42 -5 -94 -5 -68 0 -97 -4 -105 -14 -11 -13 -9 -77 5 -143 4 -20 0
-23 -30 -23 l-34 0 -6 58 c-6 46 -2 71 17 127 23 69 24 70 65 77 22 4 53 14
69 22 15 8 29 15 29 16 1 0 20 -25 43 -55z"/>
<path d="M2470 2955 c-14 -17 -13 -17 56 -34 56 -15 117 -58 155 -109 23 -31
35 -40 43 -32 27 27 -82 146 -156 168 -68 21 -86 22 -98 7z"/>
<path d="M2250 2869 c-221 -37 -373 -232 -357 -459 20 -299 335 -483 611 -357
65 30 155 111 190 171 99 170 62 408 -84 540 -93 84 -236 125 -360 105z m181
-45 c146 -43 252 -162 280 -318 48 -259 -189 -497 -452 -455 -266 43 -414 331
-293 571 85 168 284 255 465 202z"/>
<path d="M2305 2489 c-4 -5 -4 -21 -1 -34 3 -13 2 -27 -4 -30 -17 -11 -11 -23
19 -38 43 -22 78 -12 85 25 9 45 8 48 -17 48 -13 0 -32 9 -42 20 -20 22 -31
25 -40 9z"/>
<path d="M3043 2824 c-23 -9 -61 -33 -85 -54 -37 -33 -41 -39 -25 -45 12 -5
26 0 40 13 68 64 192 83 281 43 34 -15 53 -18 60 -11 14 14 -8 33 -62 54 -52
20 -152 20 -209 0z"/>
<path d="M2795 1973 c-17 -221 -75 -373 -141 -373 -39 0 -58 51 -59 155 0 50
3 109 8 133 6 37 5 42 -12 42 -23 0 -30 -22 -38 -126 -7 -100 9 -173 47 -214
96 -103 204 62 229 350 9 110 8 120 -13 120 -10 0 -16 -25 -21 -87z"/>
<path d="M1944 2035 c-17 -42 165 -153 286 -175 118 -21 301 14 264 50 -5 5
-38 2 -74 -7 -130 -30 -276 0 -377 79 -97 75 -92 72 -99 53z"/>
<path d="M2874 1909 c-9 -15 91 -110 141 -134 80 -39 285 -25 294 20 3 15 -1
17 -30 11 -179 -38 -240 -25 -330 68 -45 46 -62 55 -75 35z"/>
<path d="M2215 1383 c-27 -2 -117 -10 -200 -18 -82 -8 -153 -15 -157 -15 -5 0
-8 -7 -8 -16 0 -18 -2 -18 250 6 58 5 167 11 243 12 156 3 156 3 157 -72 2
-95 44 -151 104 -136 35 9 66 60 66 112 0 22 6 49 14 59 13 19 16 19 92 1 143
-33 280 -101 376 -185 48 -43 68 -51 68 -27 0 25 -123 116 -225 167 -195 97
-451 134 -780 112z m440 -45 c2 -2 -1 -30 -7 -63 -12 -78 -31 -107 -66 -103
-34 4 -48 34 -55 117 l-5 64 65 -6 c36 -4 67 -8 68 -9z"/>
<path d="M2361 1214 c-25 -32 -27 -64 -6 -104 23 -45 52 -56 84 -33 42 32 41
103 -1 143 -29 27 -52 25 -77 -6z m69 -14 c24 -24 27 -82 4 -105 -39 -38 -92
50 -60 100 20 30 30 31 56 5z"/>
<path d="M2576 1018 c-21 -30 -20 -51 3 -72 26 -24 62 -17 80 15 13 24 13 29
-2 53 -22 33 -60 34 -81 4z m69 -9 c4 -5 4 -21 1 -35 -5 -17 -13 -24 -30 -24
-26 0 -40 23 -31 51 7 21 49 26 60 8z"/>
<path d="M3225 2320 c-4 -6 -21 -8 -40 -4 -31 5 -33 4 -38 -28 -6 -41 23 -68
68 -65 24 2 31 8 33 27 2 14 8 29 13 35 16 17 10 45 -10 45 -11 0 -23 -5 -26
-10z"/>
<path d="M985 3386 c-18 -40 -25 -73 -24 -114 l0 -57 15 40 c17 45 45 178 38
184 -2 2 -15 -21 -29 -53z"/>
<path d="M4696 2137 c-20 -76 -34 -269 -17 -231 10 23 45 293 39 299 -2 2 -12
-28 -22 -68z"/>
<path d="M4139 1528 c-14 -30 -55 -84 -97 -127 -72 -74 -102 -116 -102 -143 0
-14 100 82 162 155 29 34 45 65 54 105 7 31 12 57 10 59 -1 2 -13 -20 -27 -49z"/>
</g>
</svg>
